<?xml version="1.0" standalone="no"?>
<svg style="background: #fff" xmlns="http://www.w3.org/2000/svg" xmlns:xlink="http://www.w3.org/1999/xlink" version="1.1" width="587px" height="501px" viewBox="-0.5 -0.5 587 501"><defs><style>* {margin: 0px; padding: 0px;}</style></defs><g><path d="M 267 222 L 204 222 L 204 293 L 147.37 293" fill="none" stroke="#000000" stroke-miterlimit="10" pointer-events="none"/><path d="M 142.12 293 L 149.12 289.5 L 147.37 293 L 149.12 296.5 Z" fill="#000000" stroke="#000000" stroke-miterlimit="10" pointer-events="none"/><path d="M 267 222 L 204 222 L 204 379 L 145.37 379" fill="none" stroke="#000000" stroke-miterlimit="10" pointer-events="none"/><path d="M 140.12 379 L 147.12 375.5 L 145.37 379 L 147.12 382.5 Z" fill="#000000" stroke="#000000" stroke-miterlimit="10" pointer-events="none"/><path d="M 297 222 L 366 222 L 366 175 L 428.63 175" fill="none" stroke="#000000" stroke-miterlimit="10" pointer-events="none"/><path d="M 433.88 175 L 426.88 178.5 L 428.63 175 L 426.88 171.5 Z" fill="#000000" stroke="#000000" stroke-miterlimit="10" pointer-events="none"/><path d="M 297 222 L 366 222 L 366 263 L 428.63 263" fill="none" stroke="#000000" stroke-miterlimit="10" pointer-events="none"/><path d="M 433.88 263 L 426.88 266.5 L 428.63 263 L 426.88 259.5 Z" fill="#000000" stroke="#000000" stroke-miterlimit="10" pointer-events="none"/><ellipse cx="282" cy="199.5" rx="7.5" ry="7.5" fill="#ffffff" stroke="#000000" pointer-events="none"/><path d="M 282 207 L 282 232 M 282 212 L 267 212 M 282 212 L 297 212 M 282 232 L 267 252 M 282 232 L 297 252" fill="none" stroke="#000000" stroke-miterlimit="10" pointer-events="none"/><g transform="translate(264.5,259.5)"><foreignObject style="overflow:visible;" pointer-events="all" width="34" height="12"><div xmlns="http://www.w3.org/1999/xhtml" style="display: inline-block; font-size: 12px; font-family: Helvetica; color: rgb(0, 0, 0); line-height: 1.2; vertical-align: top; white-space: nowrap; text-align: center;"><div xmlns="http://www.w3.org/1999/xhtml" style="display:inline-block;text-align:inherit;text-decoration:inherit;background-color:#ffffff;">Player<br/></div></div></foreignObject></g><ellipse cx="505" cy="175" rx="70" ry="35" fill="#ffffff" stroke="#000000" pointer-events="none"/><g transform="translate(490.5,168.5)"><foreignObject style="overflow:visible;" pointer-events="all" width="29" height="12"><div xmlns="http://www.w3.org/1999/xhtml" style="display: inline-block; font-size: 12px; font-family: Helvetica; color: rgb(0, 0, 0); line-height: 1.2; vertical-align: top; width: 30px; white-space: nowrap; overflow-wrap: normal; text-align: center;"><div xmlns="http://www.w3.org/1999/xhtml" style="display:inline-block;text-align:inherit;text-decoration:inherit;white-space:normal;">Move</div></div></foreignObject></g><ellipse cx="505" cy="263" rx="70" ry="35" fill="#ffffff" stroke="#000000" pointer-events="none"/><g transform="translate(489.5,256.5)"><foreignObject style="overflow:visible;" pointer-events="all" width="31" height="12"><div xmlns="http://www.w3.org/1999/xhtml" style="display: inline-block; font-size: 12px; font-family: Helvetica; color: rgb(0, 0, 0); line-height: 1.2; vertical-align: top; width: 32px; white-space: nowrap; overflow-wrap: normal; text-align: center;"><div xmlns="http://www.w3.org/1999/xhtml" style="display:inline-block;text-align:inherit;text-decoration:inherit;white-space:normal;">Shoot</div></div></foreignObject></g><ellipse cx="70" cy="287" rx="70" ry="35" fill="#ffffff" stroke="#000000" pointer-events="none"/><g transform="translate(31.5,280.5)"><foreignObject style="overflow:visible;" pointer-events="all" width="76" height="12"><div xmlns="http://www.w3.org/1999/xhtml" style="display: inline-block; font-size: 12px; font-family: Helvetica; color: rgb(0, 0, 0); line-height: 1.2; vertical-align: top; width: 77px; white-space: nowrap; overflow-wrap: normal; text-align: center;"><div xmlns="http://www.w3.org/1999/xhtml" style="display:inline-block;text-align:inherit;text-decoration:inherit;white-space:normal;">Buy Upgrades</div></div></foreignObject></g><ellipse cx="70" cy="374" rx="70" ry="35" fill="#ffffff" stroke="#000000" pointer-events="none"/><g transform="translate(23.5,367.5)"><foreignObject style="overflow:visible;" pointer-events="all" width="93" height="12"><div xmlns="http://www.w3.org/1999/xhtml" style="display: inline-block; font-size: 12px; font-family: Helvetica; color: rgb(0, 0, 0); line-height: 1.2; vertical-align: top; width: 94px; white-space: nowrap; overflow-wrap: normal; text-align: center;"><div xmlns="http://www.w3.org/1999/xhtml" style="display:inline-block;text-align:inherit;text-decoration:inherit;white-space:normal;">Navigate Menues</div></div></foreignObject></g><path d="M 416 98 L 586 98 L 586 321 L 416 321 L 416 98 Z" fill="none" stroke="#000000" stroke-miterlimit="10" pointer-events="none"/><g transform="translate(488.5,115.5)"><foreignObject style="overflow:visible;" pointer-events="all" width="25" height="12"><div xmlns="http://www.w3.org/1999/xhtml" style="display: inline-block; font-size: 12px; font-family: Helvetica; color: rgb(0, 0, 0); line-height: 1.2; vertical-align: top; white-space: nowrap; text-align: center;"><div xmlns="http://www.w3.org/1999/xhtml" style="display:inline-block;text-align:inherit;text-decoration:inherit;">Tank</div></div></foreignObject></g><ellipse cx="70" cy="35" rx="70" ry="35" fill="#ffffff" stroke="#000000" pointer-events="none"/><g transform="translate(22.5,28.5)"><foreignObject style="overflow:visible;" pointer-events="all" width="95" height="12"><div xmlns="http://www.w3.org/1999/xhtml" style="display: inline-block; font-size: 12px; font-family: Helvetica; color: rgb(0, 0, 0); line-height: 1.2; vertical-align: top; width: 96px; white-space: nowrap; overflow-wrap: normal; text-align: center;"><div xmlns="http://www.w3.org/1999/xhtml" style="display:inline-block;text-align:inherit;text-decoration:inherit;white-space:normal;">Start new level</div></div></foreignObject></g><ellipse cx="70" cy="122" rx="70" ry="35" fill="#ffffff" stroke="#000000" pointer-events="none"/><g transform="translate(16.5,115.5)"><foreignObject style="overflow:visible;" pointer-events="all" width="106" height="12"><div xmlns="http://www.w3.org/1999/xhtml" style="display: inline-block; font-size: 12px; font-family: Helvetica; color: rgb(0, 0, 0); line-height: 1.2; vertical-align: top; width: 107px; white-space: nowrap; overflow-wrap: normal; text-align: center;"><div xmlns="http://www.w3.org/1999/xhtml" style="display:inline-block;text-align:inherit;text-decoration:inherit;white-space:normal;">Load checkpoint</div></div></foreignObject></g><path d="M 267 222 L 204 222 L 204 121 L 146.37 121" fill="none" stroke="#000000" stroke-miterlimit="10" pointer-events="none"/><path d="M 141.12 121 L 148.12 117.5 L 146.37 121 L 148.12 124.5 Z" fill="#000000" stroke="#000000" stroke-miterlimit="10" pointer-events="none"/><path d="M 267 222 L 204 222 L 204 37 L 146.37 37" fill="none" stroke="#000000" stroke-miterlimit="10" pointer-events="none"/><path d="M 141.12 37 L 148.12 33.5 L 146.37 37 L 148.12 40.5 Z" fill="#000000" stroke="#000000" stroke-miterlimit="10" pointer-events="none"/><ellipse cx="70" cy="204.5" rx="70" ry="35" fill="#ffffff" stroke="#000000" pointer-events="none"/><g transform="translate(30.5,198.5)"><foreignObject style="overflow:visible;" pointer-events="all" width="78" height="12"><div xmlns="http://www.w3.org/1999/xhtml" style="display: inline-block; font-size: 12px; font-family: Helvetica; color: rgb(0, 0, 0); line-height: 1.2; vertical-align: top; width: 79px; white-space: nowrap; overflow-wrap: normal; text-align: center;"><div xmlns="http://www.w3.org/1999/xhtml" style="display:inline-block;text-align:inherit;text-decoration:inherit;white-space:normal;">Pause level</div></div></foreignObject></g><path d="M 267 222 L 204 222 L 204 205 L 150.37 205" fill="none" stroke="#000000" stroke-miterlimit="10" pointer-events="none"/><path d="M 145.12 205 L 152.12 201.5 L 150.37 205 L 152.12 208.5 Z" fill="#000000" stroke="#000000" stroke-miterlimit="10" pointer-events="none"/><ellipse cx="70" cy="465" rx="70" ry="35" fill="#ffffff" stroke="#000000" pointer-events="none"/><g transform="translate(43.5,458.5)"><foreignObject style="overflow:visible;" pointer-events="all" width="53" height="12"><div xmlns="http://www.w3.org/1999/xhtml" style="display: inline-block; font-size: 12px; font-family: Helvetica; color: rgb(0, 0, 0); line-height: 1.2; vertical-align: top; width: 54px; white-space: nowrap; overflow-wrap: normal; text-align: center;"><div xmlns="http://www.w3.org/1999/xhtml" style="display:inline-block;text-align:inherit;text-decoration:inherit;white-space:normal;">Exit game </div></div></foreignObject></g><path d="M 267 222 L 204 222 L 204 468 L 146.37 468" fill="none" stroke="#000000" stroke-miterlimit="10" pointer-events="none"/><path d="M 141.12 468 L 148.12 464.5 L 146.37 468 L 148.12 471.5 Z" fill="#000000" stroke="#000000" stroke-miterlimit="10" pointer-events="none"/></g></svg>